<svg xmlns="http://www.w3.org/2000/svg" xmlns:xlink="http://www.w3.org/1999/xlink" id="Layer_1" data-name="Layer 1" viewBox="0 0 111.04 89.63"><defs><style>.cls-1,.cls-13,.cls-5,.cls-7,.cls-8,.cls-9{fill:none}.cls-2{fill:#80b8dd}.cls-3{fill:#4a9acf}.cls-4{fill:#0071bb}.cls-5{stroke:#00bfe7}.cls-13,.cls-5,.cls-7,.cls-9{stroke-linecap:round}.cls-13,.cls-5,.cls-7,.cls-8,.cls-9{stroke-linejoin:round}.cls-5,.cls-8{stroke-width:1.65px}.cls-6{clip-path:url(#clip-path)}.cls-13,.cls-7,.cls-9{stroke:#112e51}.cls-13,.cls-7{stroke-width:6.59px}.cls-7{opacity:.45}.cls-8{stroke:#fff;opacity:.5}.cls-9{stroke-width:4.95px}.cls-10{clip-path:url(#clip-path-2)}.cls-11{fill:#fff}.cls-12{font-size:11.49px;fill:#7b8088;font-family:Menlo-Regular,Menlo;letter-spacing:0}</style><clipPath id="clip-path"><path d="M72.27,74.72a2.74,2.74,0,0,1-2.74,2.71H15.38a2.73,2.73,0,0,1-2.73-2.71V2.86A2.75,2.75,0,0,1,15.38.13h43A2,2,0,0,1,60,.92L71.45,12a2.69,2.69,0,0,1,.82,1.92Z" class="cls-1"/></clipPath><clipPath id="clip-path-2"><ellipse cx="68.64" cy="47.65" class="cls-1" rx="22.05" ry="21.85"/></clipPath></defs><title>code</title><path d="M12.65,11.71H2.85A2.83,2.83,0,0,0,0,14.53V86.8a2.83,2.83,0,0,0,2.85,2.82H62A2.83,2.83,0,0,0,64.8,86.8V77.65" class="cls-2"/><path d="M18.49,5.92H8.69A2.83,2.83,0,0,0,5.84,8.74V81a2.83,2.83,0,0,0,2.85,2.82H67.8A2.83,2.83,0,0,0,70.64,81V71.86" class="cls-3"/><path d="M72.27,74.72a2.74,2.74,0,0,1-2.74,2.71H15.38a2.73,2.73,0,0,1-2.73-2.71V2.86A2.75,2.75,0,0,1,15.38.13h43A2,2,0,0,1,60,.92L71.45,12a2.69,2.69,0,0,1,.82,1.92Z" class="cls-4"/><line x1="57.62" x2="26.25" y1="37.08" y2="37.08" class="cls-5"/><line x1="57.62" x2="26.25" y1="43.3" y2="43.3" class="cls-5"/><line x1="57.62" x2="26.25" y1="49.53" y2="49.53" class="cls-5"/><line x1="57.62" x2="26.25" y1="55.76" y2="55.76" class="cls-5"/><line x1="57.62" x2="26.25" y1="61.98" y2="61.98" class="cls-5"/><line x1="45.86" x2="26.25" y1="24.62" y2="24.62" class="cls-5"/><line x1="53.41" x2="26.25" y1="30.85" y2="30.85" class="cls-5"/><g class="cls-6"><ellipse cx="66.99" cy="50.93" class="cls-7" rx="22.05" ry="21.85"/></g><polyline points="58.34 .13 58.34 13.6 72.27 13.6" class="cls-8"/><line x1="84.22" x2="108.49" y1="63.09" y2="87.15" class="cls-9"/><g class="cls-10"><rect width="56.42" height="51.15" x="41.35" y="23.97" class="cls-11"/><text class="cls-12" transform="translate(51.48 40.85) scale(1.01 1)">010100</text><text class="cls-12" transform="translate(51.48 73.7) scale(1.01 1)">00100</text><text class="cls-12" transform="translate(51.48 62.75) scale(1.01 1)">11010</text><text class="cls-12" transform="translate(51.48 51.8) scale(1.01 1)">10011</text></g><ellipse cx="68.64" cy="47.65" class="cls-13" rx="22.05" ry="21.85"/></svg>