<svg xmlns="http://www.w3.org/2000/svg" xmlns:xlink="http://www.w3.org/1999/xlink" width="46" height="54" version="1.1" viewBox="0 0 46 54"><title>Play 4A copy 2</title><desc>Created with Sketch.</desc><g id="Page-1" fill="none" fill-rule="evenodd" stroke="none" stroke-width="1"><g id="Playbook-Splash" transform="translate(-615.000000, -759.000000)"><g id="Play-4A-copy-2" transform="translate(615.000000, 759.000000)"><g id="Play-4A-copy"><g id="Layer_1"><ellipse id="Oval" cx="22.936" cy="26.462" stroke="#02BFE7" stroke-width="4" rx="18.897" ry="19.078" transform="translate(22.936129, 26.462275) rotate(-0.060000) translate(-22.936129, -26.462275)"/><path id="Shape" fill="#E31C3D" d="M19.7318605,34.6356 L3.24139535,5.805 C2.57711932,4.64790559 2.57600571,3.22063217 3.23847529,2.06248268 C3.90094488,0.904333194 5.12598119,0.191907699 6.45069767,0.1944 L39.4262791,0.1944 C40.7509956,0.191907699 41.9760319,0.904333194 42.6385015,2.06248268 C43.300971,3.22063217 43.2998574,4.64790559 42.6355814,5.805 L26.1451163,34.6356 C25.4842207,35.7928797 24.2616742,36.5059695 22.9384884,36.5059695 C21.6153025,36.5059695 20.392756,35.7928797 19.7318605,34.6356 L19.7318605,34.6356 Z"/><path id="Shape" fill="#0071BC" d="M26.1451163,19.4076 L42.6302326,48.2382 C43.2945086,49.3952944 43.2956222,50.8225678 42.6331526,51.9807173 C41.970683,53.1388668 40.7456467,53.8512923 39.4209302,53.8488 L6.45069767,53.8488 C5.12598119,53.8512923 3.90094488,53.1388668 3.23847529,51.9807173 C2.57600571,50.8225678 2.57711932,49.3952944 3.24139535,48.2382 L19.7318605,19.4076 C20.392756,18.2503203 21.6153025,17.5372305 22.9384884,17.5372305 C24.2616742,17.5372305 25.4842207,18.2503203 26.1451163,19.4076 L26.1451163,19.4076 Z"/><polygon id="Shape" fill="#112E51" points="25.14 10.579 20.737 10.579 19.855 19.597 26.017 19.597"/><ellipse id="Oval" cx="22.936" cy="7.943" fill="#112E51" rx="3.707" ry="3.742"/><polygon id="Shape" fill="#112E51" points="20.737 43.465 25.14 43.465 26.017 34.447 19.855 34.447"/><ellipse id="Oval" cx="22.936" cy="46.1" fill="#112E51" rx="3.707" ry="3.742"/><polygon id="Shape" fill="#112E51" points="6.649 24.797 6.649 29.246 15.581 30.132 15.581 23.911"/><ellipse id="Oval" cx="4.038" cy="27.022" fill="#112E51" rx="3.707" ry="3.742"/><polygon id="Shape" fill="#112E51" points="39.223 29.246 39.223 24.797 30.296 23.911 30.296 30.132"/><ellipse id="Oval" cx="41.833" cy="27.022" fill="#112E51" rx="3.707" ry="3.742"/></g><g id="Layer_6" transform="translate(10.162791, 14.040000)"><ellipse id="Oval" cx="12.773" cy="12.422" fill="#02BFE7" rx="12.243" ry="12.361" transform="translate(12.773338, 12.422275) rotate(-0.060000) translate(-12.773338, -12.422275)"/><polygon id="Shape" fill="#FFF" points="14.57 11.885 10.976 11.885 9.826 19.067 15.726 19.067"/><ellipse id="Oval" cx="12.773" cy="9.736" fill="#FFF" rx="3.027" ry="3.056"/></g></g></g></g></g></svg>