<svg xmlns="http://www.w3.org/2000/svg" xmlns:xlink="http://www.w3.org/1999/xlink" width="42" height="45" version="1.1" viewBox="0 0 42 45"><title>Play 1A@2x Copy</title><desc>Created with Sketch.</desc><g id="Page-1" fill="none" fill-rule="evenodd" stroke="none" stroke-width="1"><g id="Playbook-Splash" transform="translate(-135.000000, -630.000000)"><g id="Play-1A@2x-Copy" transform="translate(135.000000, 628.000000)"><g id="Play-1A@2x"><g id="Layer_2"><ellipse id="Oval" cx="5.682" cy="5.886" fill="#02BFE7" rx="3.828" ry="3.842" transform="translate(5.682263, 5.885722) rotate(-45.000000) translate(-5.682263, -5.885722)"/><path id="Shape" fill="#02BFE7" d="M3.43241379,9.11896907 L7.92689655,9.11896907 C8.63910609,9.11250559 9.32436088,9.39195166 9.83025109,9.89515475 C10.3361413,10.3983578 10.6207188,11.0835926 10.6206897,11.7984536 L10.6206897,18.7612371 L0.762758621,18.7612371 L0.762758621,11.7984536 C0.762758621,11.0878101 1.04402505,10.4062727 1.54468252,9.90377192 C2.04533998,9.4012711 2.72437722,9.11896907 3.43241379,9.11896907 L3.43241379,9.11896907 Z"/><ellipse id="Oval" cx="15.939" cy="5.888" fill="#0071BC" rx="3.828" ry="3.842" transform="translate(15.938961, 5.887651) rotate(-45.000000) translate(-15.938961, -5.887651)"/><path id="Shape" fill="#0071BC" d="M13.6910345,9.11896907 L18.1855172,9.11896907 C18.8935538,9.11896907 19.5725911,9.4012711 20.0732485,9.90377192 C20.573906,10.4062727 20.8551724,11.0878101 20.8551724,11.7984536 L20.8551724,18.7612371 L11.0213793,18.7612371 L11.0213793,11.7984536 C11.0213793,11.0878101 11.3026457,10.4062727 11.8033032,9.90377192 C12.3039607,9.4012711 12.9829979,9.11896907 13.6910345,9.11896907 L13.6910345,9.11896907 Z"/><ellipse id="Oval" cx="26.2" cy="5.89" fill="#112E51" rx="3.828" ry="3.842" transform="translate(26.200488, 5.889579) rotate(-45.000000) translate(-26.200488, -5.889579)"/><path id="Shape" fill="#112E51" d="M23.9496552,9.11896907 L28.4441379,9.11896907 C29.1521745,9.11896907 29.8312117,9.4012711 30.3318692,9.90377192 C30.8325267,10.4062727 31.1137931,11.0878101 31.1137931,11.7984536 L31.1137931,18.7612371 L21.2848276,18.7612371 L21.2848276,11.7984536 C21.2848252,10.3205053 22.477131,9.12164167 23.9496552,9.11896907 L23.9496552,9.11896907 Z"/><ellipse id="Oval" cx="36.457" cy="5.892" fill="#E31C3D" rx="3.828" ry="3.842" transform="translate(36.457187, 5.891508) rotate(-45.000000) translate(-36.457187, -5.891508)"/><path id="Shape" fill="#E31C3D" d="M34.2131034,9.11896907 L38.7075862,9.11896907 C39.4156228,9.11896907 40.09466,9.4012711 40.5953175,9.90377192 C41.0959749,10.4062727 41.3772414,11.0878101 41.3772414,11.7984536 L41.3772414,18.7612371 L31.5434483,18.7612371 L31.5434483,11.7984536 C31.5434483,11.0878101 31.8247147,10.4062727 32.3253722,9.90377192 C32.8260296,9.4012711 33.5050669,9.11896907 34.2131034,9.11896907 L34.2131034,9.11896907 Z"/><ellipse id="Oval" cx="5.681" cy="19.636" fill="#112E51" rx="3.828" ry="3.842" transform="translate(5.681148, 19.635737) rotate(-45.000000) translate(-5.681148, -19.635737)"/><path id="Shape" fill="#112E51" d="M3.43241379,22.8701031 L7.92689655,22.8701031 C8.63910609,22.8636396 9.32436088,23.1430857 9.83025109,23.6462888 C10.3361413,24.1494919 10.6207188,24.8347266 10.6206897,25.5495876 L10.6206897,32.5123711 L0.762758621,32.5123711 L0.762758621,25.5495876 C0.762758621,24.8389441 1.04402505,24.1574068 1.54468252,23.6549059 C2.04533998,23.1524051 2.72437722,22.8701031 3.43241379,22.8701031 L3.43241379,22.8701031 Z"/><ellipse id="Oval" cx="15.943" cy="19.638" fill="#E31C3D" rx="3.828" ry="3.842" transform="translate(15.942674, 19.637666) rotate(-45.000000) translate(-15.942674, -19.637666)"/><path id="Shape" fill="#E31C3D" d="M13.6910345,22.8701031 L18.1855172,22.8701031 C19.6599271,22.8701031 20.8551724,24.0697492 20.8551724,25.5495876 L20.8551724,32.5123711 L11.0213793,32.5123711 L11.0213793,25.5495876 C11.0213793,24.0697492 12.2166246,22.8701031 13.6910345,22.8701031 L13.6910345,22.8701031 Z"/><ellipse id="Oval" cx="26.199" cy="19.64" fill="#02BFE7" rx="3.828" ry="3.842" transform="translate(26.199373, 19.639594) rotate(-45.000000) translate(-26.199373, -19.639594)"/><path id="Shape" fill="#02BFE7" d="M23.9496552,22.8701031 L28.4441379,22.8701031 C29.1521745,22.8701031 29.8312117,23.1524051 30.3318692,23.6549059 C30.8325267,24.1574068 31.1137931,24.8389441 31.1137931,25.5495876 L31.1137931,32.5123711 L21.2848276,32.5123711 L21.2848276,25.5495876 C21.2848252,24.0716393 22.477131,22.8727757 23.9496552,22.8701031 L23.9496552,22.8701031 Z"/><ellipse id="Oval" cx="36.461" cy="19.642" fill="#0071BC" rx="3.828" ry="3.842" transform="translate(36.460899, 19.641523) rotate(-45.000000) translate(-36.460899, -19.641523)"/><path id="Shape" fill="#0071BC" d="M34.2131034,22.8701031 L38.7075862,22.8701031 C40.181996,22.8701031 41.3772414,24.0697492 41.3772414,25.5495876 L41.3772414,32.5123711 L31.5434483,32.5123711 L31.5434483,25.5495876 C31.5434483,24.0697492 32.7386936,22.8701031 34.2131034,22.8701031 L34.2131034,22.8701031 Z"/><ellipse id="Oval" cx="5.683" cy="33.874" fill="#E31C3D" rx="3.828" ry="3.842" transform="translate(5.683464, 33.873731) rotate(-45.000000) translate(-5.683464, -33.873731)"/><path id="Shape" fill="#E31C3D" d="M3.43241379,37.1057732 L7.92689655,37.1057732 C8.63827007,37.0993162 9.32278921,37.3780995 9.82853855,37.8802528 C10.3342879,38.3824061 10.6194323,39.0663916 10.6206897,39.7804124 L10.6206897,46.7431959 L0.762758621,46.7431959 L0.762758621,39.7804124 C0.765421417,38.3024665 1.95988719,37.1057708 3.43241379,37.1057732 L3.43241379,37.1057732 Z"/><ellipse id="Oval" cx="15.94" cy="33.871" fill="#02BFE7" rx="3.828" ry="3.842" transform="translate(15.940162, 33.870815) rotate(-45.000000) translate(-15.940162, -33.870815)"/><path id="Shape" fill="#02BFE7" d="M13.6910345,37.1057732 L18.1855172,37.1057732 C19.6599271,37.1057732 20.8551724,38.3054193 20.8551724,39.7852577 L20.8551724,46.7480412 L11.0213793,46.7480412 L11.0213793,39.7804124 C11.0240421,38.3024665 12.2185079,37.1057708 13.6910345,37.1057732 L13.6910345,37.1057732 Z"/><ellipse id="Oval" cx="26.202" cy="33.873" fill="#0071BC" rx="3.828" ry="3.842" transform="translate(26.201689, 33.872744) rotate(-45.000000) translate(-26.201689, -33.872744)"/><path id="Shape" fill="#0071BC" d="M23.9496552,37.1057732 L28.4441379,37.1057732 C29.1521745,37.1057732 29.8312117,37.3880752 30.3318692,37.890576 C30.8325267,38.3930769 31.1137931,39.0746142 31.1137931,39.7852577 L31.1137931,46.7480412 L21.2848276,46.7480412 L21.2848276,39.7804124 C21.2874846,38.304356 22.4790135,37.10844 23.9496552,37.1057732 L23.9496552,37.1057732 Z"/><ellipse id="Oval" cx="36.458" cy="33.875" fill="#112E51" rx="3.828" ry="3.842" transform="translate(36.458388, 33.874672) rotate(-45.000000) translate(-36.458388, -33.874672)"/><path id="Shape" fill="#112E51" d="M34.2131034,37.1057732 L38.7075862,37.1057732 C40.181996,37.1057732 41.3772414,38.3054193 41.3772414,39.7852577 L41.3772414,46.7480412 L31.5434483,46.7480412 L31.5434483,39.7804124 C31.5461111,38.3024665 32.7405768,37.1057708 34.2131034,37.1057732 L34.2131034,37.1057732 Z"/></g></g></g></g></g></svg>