<svg xmlns="http://www.w3.org/2000/svg" xmlns:xlink="http://www.w3.org/1999/xlink" width="60" height="8" version="1.1" viewBox="0 0 60 8"><title>Group 7</title><desc>Created with Sketch.</desc><g id="Page-1" fill="none" fill-rule="evenodd" stroke="none" stroke-width="1"><g id="Playbook-Landing-Page-2b" fill="#E21C3D" transform="translate(-100.000000, -4249.000000)"><g id="Group-7" transform="translate(100.000000, 4249.000000)"><path id="Rectangle-234-Copy-16" d="M14,4 C14,1.790861 15.7890275,0 18.0042577,0 L41.9957423,0 C44.2072328,0 46,1.79535615 46,4 L46,4 C46,6.209139 44.2109725,8 41.9957423,8 L18.0042577,8 C15.7927672,8 14,6.20464385 14,4 L14,4 Z" transform="translate(30.000000, 4.000000) rotate(-180.000000) translate(-30.000000, -4.000000)"/><path id="Rectangle-234-Copy-17" d="M52,4 C52,1.790861 53.7953562,0 56,0 L56,0 C58.209139,0 60,1.79535615 60,4 L60,4 C60,6.209139 58.2046438,8 56,8 L56,8 C53.790861,8 52,6.20464385 52,4 L52,4 Z" transform="translate(56.000000, 4.000000) rotate(-180.000000) translate(-56.000000, -4.000000)"/><path id="Rectangle-234-Copy-18" d="M-1.77635684e-16,4 C-1.77635684e-16,1.790861 1.79535615,0 4,0 L4,0 C6.209139,0 8,1.79535615 8,4 L8,4 C8,6.209139 6.20464385,8 4,8 L4,8 C1.790861,8 -1.77635684e-16,6.20464385 -1.77635684e-16,4 L-1.77635684e-16,4 Z" transform="translate(4.000000, 4.000000) rotate(-180.000000) translate(-4.000000, -4.000000)"/></g></g></g></svg>