<svg xmlns="http://www.w3.org/2000/svg" xmlns:xlink="http://www.w3.org/1999/xlink" width="88" height="8" version="1.1" viewBox="0 0 88 8"><title>Group 2 Copy</title><desc>Created with Sketch.</desc><g id="Page-1" fill="none" fill-rule="evenodd" stroke="none" stroke-width="1"><g id="Playbook-Principles" fill="#E21C3D" transform="translate(-102.000000, -308.000000)"><g id="Group-2-Copy" transform="translate(146.000000, 312.000000) rotate(-180.000000) translate(-146.000000, -312.000000) translate(102.000000, 308.000000)"><path id="Rectangle-234-Copy-8" d="M28,4 C28,1.790861 29.7956808,0 32.0065556,0 L83.9934444,0 C86.206204,0 88,1.79535615 88,4 L88,4 C88,6.209139 86.2043192,8 83.9934444,8 L32.0065556,8 C29.793796,8 28,6.20464385 28,4 L28,4 Z"/><path id="Rectangle-234-Copy-10" d="M-1.77635684e-16,4 C-1.77635684e-16,1.790861 1.79535615,0 4,0 L4,0 C6.209139,0 8,1.79535615 8,4 L8,4 C8,6.209139 6.20464385,8 4,8 L4,8 C1.790861,8 -1.77635684e-16,6.20464385 -1.77635684e-16,4 L-1.77635684e-16,4 Z"/><path id="Rectangle-234-Copy-11" d="M14,4 C14,1.790861 15.7953562,0 18,0 L18,0 C20.209139,0 22,1.79535615 22,4 L22,4 C22,6.209139 20.2046438,8 18,8 L18,8 C15.790861,8 14,6.20464385 14,4 L14,4 Z"/></g></g></g></svg>