<svg xmlns="http://www.w3.org/2000/svg" xmlns:xlink="http://www.w3.org/1999/xlink" id="Layer_1" data-name="Layer 1" viewBox="0 0 104 104"><defs><linearGradient id="linear-gradient" x1="52" x2="52" y1="-7" y2="81.79" gradientUnits="userSpaceOnUse"><stop offset="0" stop-color="#112e51"/><stop offset="1" stop-color="#205493"/></linearGradient><linearGradient id="linear-gradient-2" x1="52.08" x2="52.08" y1="83.6" y2="104.33" gradientUnits="userSpaceOnUse"><stop offset="0" stop-color="#239bd2"/><stop offset="1" stop-color="#00bfe7"/></linearGradient><clipPath id="clip-path"><path fill="none" d="M52,0a52,52,0,1,0,52,52A52,52,0,0,0,52,0Z"/></clipPath><linearGradient id="New_Gradient_Swatch_3" x1="50.51" x2="54.01" y1="69.38" y2="84.38" gradientUnits="userSpaceOnUse"><stop offset="0" stop-color="#fc768c"/><stop offset="1" stop-color="#e21d3e"/></linearGradient></defs><title>launch</title><path fill="url(#linear-gradient)" d="M16.19,89.69A98.61,98.61,0,0,1,88,89.53a52,52,0,1,0-71.78.16Z"/><path fill="url(#linear-gradient-2)" d="M16.19,89.69A51.95,51.95,0,0,0,88,89.53a98.61,98.61,0,0,0-71.78.16Z"/><g clip-path="url(#clip-path)"><path fill="none" stroke="#112e51" stroke-linecap="square" stroke-miterlimit="10" stroke-width="3" d="M88,89.53a98.61,98.61,0,0,0-71.78.16"/></g><path fill="#00bfe7" d="M44.37,65.74l-9,4.1c.13-7.46,4.94-14.49,7.5-17.72Z"/><path fill="#00bfe7" d="M60.44,66l9,4.09c-.14-7.64-5.18-14.84-7.69-18Z"/><path fill="#fff" d="M52.34,18.44C49.13,18.44,41,29.71,41,35.65L44.58,68.7a1.16,1.16,0,0,0,1.15,1.08H58.95A1.16,1.16,0,0,0,60.1,68.7l3.54-33.13C63.64,29.71,56,18.44,52.34,18.44Z"/><circle cx="52.34" cy="39.69" r="4.5" fill="#00bfe7"/><path fill="url(#New_Gradient_Swatch_3)" d="M55.65,72.3a3.93,3.93,0,0,1,2.27,3.89c0,3.38-2.5,16.84-5.58,16.84s-5.58-13.47-5.58-16.85A3.93,3.93,0,0,1,49,72.3Z"/><circle cx="22.76" cy="31.07" r="2.21" fill="#fff"/><circle cx="46.43" cy="6.89" r=".88" fill="#fff"/><circle cx="31.61" cy="50.85" r="1.11" fill="#fff"/><circle cx="11.26" cy="62.17" r="1.37" fill="#fff"/><circle cx="76.84" cy="23.74" r="1.8" fill="#fff"/><circle cx="86.27" cy="74.99" r="1.46" fill="#fff"/><circle cx="86.45" cy="45.18" r="1.17" fill="#fff"/><polygon fill="#e21d3e" points="43.31 56.79 43.62 59.73 61.06 59.73 61.37 56.79 43.31 56.79"/><polygon fill="#e21d3e" points="44.17 64.9 60.51 64.9 60.82 61.97 43.86 61.97 44.17 64.9"/></svg>